{
  "accessors": [
    {
      "bufferView": 2,
      "componentType": 5126,
      "count": 152,
      "max": [
        0.080084219574928284,
        6.4489960670471191,
        1.2957435846328735
      ],
      "min": [
        -0.08008420467376709,
        4.65826416015625,
        0.35297232866287231
      ],
      "type": "VEC3"
    },
    {
      "bufferView": 2,
      "byteOffset": 1824,
      "componentType": 5126,
      "count": 152,
      "max": [
        1,
        0.97423523664474487,
        0.99720174074172974
      ],
      "min": [
        -1,
        -1,
        -0.99720180034637451
      ],
      "type": "VEC3"
    },
    {
      "bufferView": 3,
      "componentType": 5126,
      "count": 152,
      "max": [
        0,
        0,
        0,
        1
      ],
      "min": [
        0,
        0,
        0,
        1
      ],
      "type": "VEC4"
    },
    {
      "bufferView": 1,
      "componentType": 5126,
      "count": 152,
      "max": [
        0.26838544011116028,
        0.71211278438568115
      ],
      "min": [
        0.26838541030883789,
        0.71211272478103638
      ],
      "type": "VEC2"
    },
    {
      "bufferView": 0,
      "componentType": 5125,
      "count": 228,
      "max": [
        151
      ],
      "min": [
        0
      ],
      "type": "SCALAR"
    },
    {
      "bufferView": 2,
      "byteOffset": 3648,
      "componentType": 5126,
      "count": 152,
      "max": [
        0.080084145069122314,
        6.4863243103027344,
        -0.35294890403747559
      ],
      "min": [
        -0.08008420467376709,
        4.6180486679077148,
        -1.2909255027770996
      ],
      "type": "VEC3"
    },
    {
      "bufferView": 2,
      "byteOffset": 5472,
      "componentType": 5126,
      "count": 152,
      "max": [
        1,
        0.96168774366378784,
        0.99720120429992676
      ],
      "min": [
        -1,
        -1,
        -0.99720132350921631
      ],
      "type": "VEC3"
    },
    {
      "bufferView": 3,
      "byteOffset": 2432,
      "componentType": 5126,
      "count": 152,
      "max": [
        0,
        0,
        0,
        1
      ],
      "min": [
        0,
        0,
        0,
        1
      ],
      "type": "VEC4"
    },
    {
      "bufferView": 1,
      "byteOffset": 1216,
      "componentType": 5126,
      "count": 152,
      "max": [
        0.26838544011116028,
        0.71211278438568115
      ],
      "min": [
        0.26838541030883789,
        0.71211272478103638
      ],
      "type": "VEC2"
    },
    {
      "bufferView": 0,
      "byteOffset": 912,
      "componentType": 5125,
      "count": 228,
      "max": [
        151
      ],
      "min": [
        0
      ],
      "type": "SCALAR"
    },
    {
      "bufferView": 2,
      "byteOffset": 7296,
      "componentType": 5126,
      "count": 318,
      "max": [
        0.97786664962768555,
        3.653785228729248,
        0.93000656366348267
      ],
      "min": [
        -0.9778667688369751,
        2.6875450611114502,
        -0.93000668287277222
      ],
      "type": "VEC3"
    },
    {
      "bufferView": 2,
      "byteOffset": 11112,
      "componentType": 5126,
      "count": 318,
      "max": [
        0.95105701684951782,
        1,
        1
      ],
      "min": [
        -0.95105701684951782,
        -1,
        -1
      ],
      "type": "VEC3"
    },
    {
      "bufferView": 3,
      "byteOffset": 4864,
      "componentType": 5126,
      "count": 318,
      "max": [
        0,
        0,
        0,
        1
      ],
      "min": [
        0,
        0,
        0,
        1
      ],
      "type": "VEC4"
    },
    {
      "bufferView": 1,
      "byteOffset": 2432,
      "componentType": 5126,
      "count": 318,
      "max": [
        0.20396649837493896,
        0.46785759925842285
      ],
      "min": [
        0.20396637916564941,
        0.46785759925842285
      ],
      "type": "VEC2"
    },
    {
      "bufferView": 0,
      "byteOffset": 1824,
      "componentType": 5125,
      "count": 480,
      "max": [
        317
      ],
      "min": [
        0
      ],
      "type": "SCALAR"
    },
    {
      "bufferView": 2,
      "byteOffset": 14928,
      "componentType": 5126,
      "count": 402,
      "max": [
        0.80110460519790649,
        3.6177799701690674,
        0.74479550123214722
      ],
      "min": [
        -0.74479550123214722,
        0.3079230785369873,
        -0.74479538202285767
      ],
      "type": "VEC3"
    },
    {
      "bufferView": 2,
      "byteOffset": 19752,
      "componentType": 5126,
      "count": 402,
      "max": [
        0.94531196355819702,
        1,
        1
      ],
      "min": [
        -0.93253278732299805,
        -1,
        -1
      ],
      "type": "VEC3"
    },
    {
      "bufferView": 3,
      "byteOffset": 9952,
      "componentType": 5126,
      "count": 402,
      "max": [
        0,
        0,
        0,
        1
      ],
      "min": [
        0,
        -0.03999042883515358,
        -0.99920016527175903,
        1
      ],
      "type": "VEC4"
    },
    {
      "bufferView": 1,
      "byteOffset": 4976,
      "componentType": 5126,
      "count": 402,
      "max": [
        0.26838544011116028,
        0.71211278438568115
      ],
      "min": [
        0.26838541030883789,
        0.7121126651763916
      ],
      "type": "VEC2"
    },
    {
      "bufferView": 0,
      "byteOffset": 3744,
      "componentType": 5125,
      "count": 624,
      "max": [
        401
      ],
      "min": [
        0
      ],
      "type": "SCALAR"
    }
  ],
  "asset": {
    "extras": {
      "author": "Synty Studios (https://sketchfab.com/syntystudios)",
      "license": "CC-BY-4.0 (http://creativecommons.org/licenses/by/4.0/)",
      "source": "https://sketchfab.com/3d-models/a-cool-little-cup-just-for-fun-afd10a0435184da58cb5f391c0499b14",
      "title": "A cool little cup just for fun :)"
    },
    "generator": "Sketchfab-6.31.0",
    "version": "2.0"
  },
  "bufferViews": [
    {
      "buffer": 0,
      "byteLength": 6240,
      "byteOffset": 0,
      "name": "floatBufferViews",
      "target": 34963
    },
    {
      "buffer": 0,
      "byteLength": 8192,
      "byteOffset": 6240,
      "byteStride": 8,
      "name": "floatBufferViews",
      "target": 34962
    },
    {
      "buffer": 0,
      "byteLength": 24576,
      "byteOffset": 14432,
      "byteStride": 12,
      "name": "floatBufferViews",
      "target": 34962
    },
    {
      "buffer": 0,
      "byteLength": 16384,
      "byteOffset": 39008,
      "byteStride": 16,
      "name": "floatBufferViews",
      "target": 34962
    }
  ],
  "buffers": [
    {
      "byteLength": 55392,
      "uri": "scene.bin"
    }
  ],
  "materials": [
    {
      "doubleSided": true,
      "emissiveFactor": [
        0,
        0,
        0
      ],
      "name": "metal",
      "pbrMetallicRoughness": {
        "baseColorFactor": [
          0.95040749165796068,
          0.55273183768904044,
          0.13455680510410017,
          1
        ],
        "metallicFactor": 0.59926629216416072,
        "roughnessFactor": 0.49234805317045011
      }
    },
    {
      "doubleSided": true,
      "emissiveFactor": [
        0,
        0,
        0
      ],
      "name": "wood",
      "pbrMetallicRoughness": {
        "baseColorFactor": [
          0.14107431122548625,
          0.027930069875279438,
          0.0050935195851174869,
          1
        ],
        "metallicFactor": 0,
        "roughnessFactor": 0.59999999999999998
      }
    }
  ],
  "meshes": [
    {
      "name": "polySurface3_metal_0",
      "primitives": [
        {
          "attributes": {
            "NORMAL": 1,
            "POSITION": 0,
            "TANGENT": 2,
            "TEXCOORD_0": 3
          },
          "indices": 4,
          "material": 0,
          "mode": 4
        }
      ]
    },
    {
      "name": "polySurface4_metal_0",
      "primitives": [
        {
          "attributes": {
            "NORMAL": 6,
            "POSITION": 5,
            "TANGENT": 7,
            "TEXCOORD_0": 8
          },
          "indices": 9,
          "material": 0,
          "mode": 4
        }
      ]
    },
    {
      "name": "polySurface5_wood_0",
      "primitives": [
        {
          "attributes": {
            "NORMAL": 11,
            "POSITION": 10,
            "TANGENT": 12,
            "TEXCOORD_0": 13
          },
          "indices": 14,
          "material": 1,
          "mode": 4
        }
      ]
    },
    {
      "name": "polySurface6_metal_0",
      "primitives": [
        {
          "attributes": {
            "NORMAL": 16,
            "POSITION": 15,
            "TANGENT": 17,
            "TEXCOORD_0": 18
          },
          "indices": 19,
          "material": 0,
          "mode": 4
        }
      ]
    }
  ],
  "nodes": [
    {
      "children": [
        1
      ],
      "name": "RootNode (gltf orientation matrix)",
      "rotation": [
        -0.70710678118654746,
        -0,
        -0,
        0.70710678118654757
      ]
    },
    {
      "children": [
        2
      ],
      "name": "RootNode (model correction matrix)"
    },
    {
      "children": [
        3
      ],
      "matrix": [
        1,
        0,
        0,
        0,
        0,
        0,
        1,
        0,
        0,
        -1,
        0,
        0,
        0,
        0,
        0,
        1
      ],
      "name": "894b581a43644fbfa84999610b09456a.fbx"
    },
    {
      "children": [
        4,
        9
      ],
      "name": "RootNode"
    },
    {
      "children": [
        5,
        7
      ],
      "matrix": [
        1,
        0,
        0,
        0,
        0,
        1,
        0,
        0,
        0,
        0,
        1,
        0,
        0,
        -2.6875450611114502,
        0,
        1
      ],
      "name": "pCylinder7"
    },
    {
      "children": [
        6
      ],
      "name": "polySurface3"
    },
    {
      "mesh": 0,
      "name": "polySurface3_metal_0"
    },
    {
      "children": [
        8
      ],
      "name": "polySurface4"
    },
    {
      "mesh": 1,
      "name": "polySurface4_metal_0"
    },
    {
      "children": [
        10,
        12
      ],
      "name": "group1"
    },
    {
      "children": [
        11
      ],
      "matrix": [
        1,
        0,
        0,
        0,
        0,
        1,
        0,
        0,
        0,
        0,
        1,
        0,
        0,
        -2.6875450611114502,
        0,
        1
      ],
      "name": "polySurface5"
    },
    {
      "mesh": 2,
      "name": "polySurface5_wood_0"
    },
    {
      "children": [
        13
      ],
      "name": "polySurface6"
    },
    {
      "mesh": 3,
      "name": "polySurface6_metal_0"
    }
  ],
  "scene": 0,
  "scenes": [
    {
      "name": "OSG_Scene",
      "nodes": [
        0
      ]
    }
  ]
}

